<svg xmlns="http://www.w3.org/2000/svg" width="986.667" height="189.333" version="1.0" viewBox="0 0 740 142"><g fill="#f8fafc"><path d="M13.1 21.8c-6.4 3.4-8.8 11.8-5.5 18.8 1.5 3.1 1.5 3.7 0 6.8C6.7 49.3 6 52.2 6 54c0 1.8.7 4.7 1.6 6.6 1.5 3.1 1.5 3.7 0 6.8-2 4.3-2 8.9 0 13.2 1.5 3.1 1.5 3.7 0 6.8-2 4.3-2 8.9 0 13.2 1.5 3.1 1.5 3.7 0 6.8-6 12.8 7 25.4 19.3 18.8 6.4-3.4 8.8-11.8 5.5-18.8-1.5-3.1-1.5-3.7 0-6.8 1.8-3.8 2.1-8.3.7-11.9-.9-2.4-.9-2.4 3-1.3 2.7.7 5.1.7 7.8 0 3.9-1.1 3.9-1.1 3 1.3-1.4 3.6-1.1 8.1.7 11.9 1.5 3.1 1.5 3.7 0 6.8-3.3 7-.9 15.4 5.5 18.8 12.3 6.6 25.3-6 19.3-18.8-1.5-3.1-1.5-3.7 0-6.8 2-4.3 2-8.9 0-13.2-1.5-3.1-1.5-3.7 0-6.8 2-4.3 2-8.9 0-13.2-1.5-3.1-1.5-3.7 0-6.8.9-1.9 1.6-4.8 1.6-6.6 0-1.8-.7-4.7-1.6-6.6-1.5-3.1-1.5-3.7 0-6.8 3.3-7 .9-15.4-5.5-18.8-12.3-6.6-25.3 6-19.3 18.8 1.5 3.1 1.5 3.7 0 6.8-1.8 3.8-2.1 8.3-.7 11.9.9 2.4.9 2.4-3 1.3-2.7-.7-5.1-.7-7.8 0-3.9 1.1-3.9 1.1-3-1.3 1.4-3.6 1.1-8.1-.7-11.9-1.5-3.1-1.5-3.7 0-6.8C37 30.9 30.5 20 20 20c-1.9 0-5.1.8-6.9 1.8zM113.1 21.8c-5.9 3.2-8.6 11-6.1 17.6.9 2.4.8 2.5-1.6 1.6-12.3-4.7-23.5 7.6-17.8 19.6 1.5 3.1 1.5 3.7 0 6.8-.9 1.9-1.6 4.8-1.6 6.6 0 1.8.7 4.7 1.6 6.6 1.5 3.1 1.5 3.7 0 6.8-5.6 11.9 5.5 24.3 17.7 19.7 2.3-.9 2.4-.9 1.4 2.8-2.1 8 2.5 16.3 9.8 17.7 11.3 2.1 19.7-6.8 16.8-17.7-1-3.7-.9-3.7 1.4-2.8 12.2 4.6 23.3-7.8 17.7-19.7-1.5-3.1-1.5-3.7 0-6.8.9-1.9 1.6-4.8 1.6-6.6 0-1.8-.7-4.7-1.6-6.6-1.5-3.1-1.5-3.7 0-6.8 5.7-12-5.5-24.3-17.8-19.6-2.4.9-2.5.8-1.6-1.6 3.6-9.3-3.2-19.4-13-19.4-1.9 0-5.1.8-6.9 1.8zm10.8 25.6c3.9-1.1 3.9-1.1 3 1.3-1.4 3.6-1.1 8.1.7 11.9 1.5 3.1 1.5 3.7 0 6.8-.9 1.9-1.6 4.8-1.6 6.6 0 1.8.7 4.7 1.6 6.6 1.5 3.1 1.5 3.7 0 6.8-1.8 3.8-2.1 8.3-.7 11.9.9 2.4.9 2.4-3 1.3-2.7-.7-5.1-.7-7.8 0-3.9 1.1-3.9 1.1-3-1.3 1.4-3.6 1.1-8.1-.7-11.9-1.5-3.1-1.5-3.7 0-6.8.9-1.9 1.6-4.8 1.6-6.6 0-1.8-.7-4.7-1.6-6.6-1.5-3.1-1.5-3.7 0-6.8 1.8-3.8 2.1-8.3.7-11.9-.9-2.4-.9-2.4 3-1.3 2.7.7 5.1.7 7.8 0zM173.1 21.8c-6.4 3.4-8.8 11.8-5.5 18.8 1.5 3.1 1.5 3.7 0 6.8-.9 1.9-1.6 4.8-1.6 6.6 0 1.8.7 4.7 1.6 6.6 1.5 3.1 1.5 3.7 0 6.8-.9 1.9-1.6 4.8-1.6 6.6 0 1.8.7 4.7 1.6 6.6 1.5 3.1 1.5 3.7 0 6.8-5.7 12 5.5 24.3 17.8 19.6 2.4-.9 2.5-.8 1.6 1.6-4.7 12.3 7.6 23.5 19.6 17.8 3.1-1.5 3.7-1.5 6.8 0 12.6 6 25-6.4 19-19-1.5-3.1-1.5-3.7 0-6.8.9-1.9 1.6-4.8 1.6-6.6 0-1.8-.7-4.7-1.6-6.6-1.5-3.1-1.5-3.7 0-6.8.9-1.9 1.6-4.8 1.6-6.6 0-1.8-.7-4.7-1.6-6.6-1.5-3.1-1.5-3.7 0-6.8.9-1.9 1.6-4.8 1.6-6.6 0-1.8-.7-4.7-1.6-6.6-1.5-3.1-1.5-3.7 0-6.8 6-12.8-7-25.4-19.3-18.8-6.4 3.4-8.8 11.8-5.5 18.8 1.5 3.1 1.5 3.7 0 6.8-.9 1.9-1.6 4.8-1.6 6.6 0 1.8.7 4.7 1.6 6.6 1.5 3.1 1.5 3.7 0 6.8-.9 1.9-1.6 4.8-1.6 6.6 0 1.8.7 4.7 1.6 6.6 1.5 3.1 1.5 3.7 0 6.8-1.8 3.8-2.1 8.3-.7 11.9.9 2.4.9 2.4-3 1.3-2.7-.7-5.1-.7-7.8 0-3.9 1.1-3.9 1.1-3-1.3 1.4-3.6 1.1-8.1-.7-11.9-1.5-3.1-1.5-3.7 0-6.8.9-1.9 1.6-4.8 1.6-6.6 0-1.8-.7-4.7-1.6-6.6-1.5-3.1-1.5-3.7 0-6.8.9-1.9 1.6-4.8 1.6-6.6 0-1.8-.7-4.7-1.6-6.6-1.5-3.1-1.5-3.7 0-6.8C197 30.9 190.5 20 180 20c-1.9 0-5.1.8-6.9 1.8zM273.1 21.8c-5.8 3.1-8.6 11-6.2 17.5.9 2.3.9 2.4-2.8 1.4-10.9-2.9-19.8 5.5-17.7 16.8 1.4 7.3 9.7 11.9 17.6 9.8l3.6-.9-.9 3.6c-3 11 6.3 20.3 17.3 17.3l3.6-.9-1 3.8c-.7 2.6-.7 5 0 7.7 1.1 3.9 1.1 3.9-1.3 3-3.6-1.4-8.1-1.1-11.9.7-3.1 1.5-3.7 1.5-6.8 0-7-3.3-15.4-.9-18.8 5.5-6.6 12.3 6 25.3 18.8 19.3 3.1-1.5 3.7-1.5 6.8 0 11.9 5.6 24.3-5.5 19.7-17.7-.9-2.3-.9-2.4 2.8-1.4 10.9 2.9 19.8-5.5 17.7-16.8-1.4-7.3-9.7-11.9-17.6-9.8l-3.6.9.9-3.6c3-11-6.3-20.3-17.3-17.3l-3.6.9 1-3.8c.7-2.6.7-5 0-7.7-1.1-3.9-1.1-3.9 1.3-3 3.6 1.4 8.1 1.1 11.9-.7 3.1-1.5 3.7-1.5 6.8 0 7 3.3 15.4.9 18.8-5.5 6.6-12.3-6-25.3-18.8-19.3-3.1 1.5-3.7 1.5-6.8 0-4.5-2.1-9.3-2-13.5.2zM333.1 21.8c-6.4 3.4-8.8 11.8-5.5 18.8 1.5 3.1 1.5 3.7 0 6.8-.9 1.9-1.6 4.8-1.6 6.6 0 1.8.7 4.7 1.6 6.6 1.5 3.1 1.5 3.7 0 6.8-.9 1.9-1.6 4.8-1.6 6.6 0 1.8.7 4.7 1.6 6.6 1.5 3.1 1.5 3.7 0 6.8-2 4.3-2 8.9 0 13.2 1.5 3.1 1.5 3.7 0 6.8-5 10.5 2.3 21.3 13.7 20.3 2.7-.2 5.6-1.1 6.4-2 1.4-1.4 1.9-1.4 5.2.4 12.7 6.8 26.1-6.4 19.3-19-3.1-5.8-11-8.6-17.5-6.2-2.4.9-2.4.9-1.3-3 .7-2.7.7-5.1 0-7.7l-1-3.8 3.6.9c7.9 2.1 16.2-2.5 17.6-9.8 2.1-11.2-6.8-19.7-17.6-16.8l-3.6.9 1-3.8c.7-2.6.7-5 0-7.7-1.1-3.9-1.1-3.9 1.3-3 6.5 2.4 14.4-.4 17.5-6.2 6.6-12.3-6-25.3-18.8-19.3-3.1 1.5-3.7 1.5-6.8 0-4.5-2.1-9.3-2-13.5.2zM413.1 21.8c-5.8 3.1-8.6 11-6.2 17.5.9 2.3.9 2.4-2.8 1.4-10.9-2.9-19.8 5.5-17.7 16.8 1.4 7.3 9.7 11.9 17.6 9.8l3.6-.9-.9 3.6c-3 11 6.3 20.3 17.3 17.3l3.6-.9-1 3.8c-.7 2.6-.7 5 0 7.7 1.1 3.9 1.1 3.9-1.3 3-3.6-1.4-8.1-1.1-11.9.7-3.1 1.5-3.7 1.5-6.8 0-7-3.3-15.4-.9-18.8 5.5-6.6 12.3 6 25.3 18.8 19.3 3.1-1.5 3.7-1.5 6.8 0 11.9 5.6 24.3-5.5 19.7-17.7-.9-2.3-.9-2.4 2.8-1.4 10.9 2.9 19.8-5.5 17.7-16.8-1.4-7.3-9.7-11.9-17.6-9.8l-3.6.9.9-3.6c3-11-6.3-20.3-17.3-17.3l-3.6.9 1-3.8c.7-2.6.7-5 0-7.7-1.1-3.9-1.1-3.9 1.3-3 3.6 1.4 8.1 1.1 11.9-.7 3.1-1.5 3.7-1.5 6.8 0 7 3.3 15.4.9 18.8-5.5 6.6-12.3-6-25.3-18.8-19.3-3.1 1.5-3.7 1.5-6.8 0-4.5-2.1-9.3-2-13.5.2zM473.1 21.8c-6.4 3.4-8.8 11.8-5.5 18.8 1.5 3.1 1.5 3.7 0 6.8-.9 1.9-1.6 4.8-1.6 6.6 0 1.8.7 4.7 1.6 6.6 1.5 3.1 1.5 3.7 0 6.8-.9 1.9-1.6 4.8-1.6 6.6 0 1.8.7 4.7 1.6 6.6 1.5 3.1 1.5 3.7 0 6.8-2 4.3-2 8.9 0 13.2 1.5 3.1 1.5 3.7 0 6.8-6 12.8 7 25.4 19.3 18.8 6.4-3.4 8.8-11.8 5.5-18.8-1.5-3.1-1.5-3.7 0-6.8 1.8-3.8 2.1-8.3.7-11.9-.9-2.4-.9-2.4 3-1.3 2.7.7 5.1.7 7.8 0 3.9-1.1 3.9-1.1 3 1.3-1.4 3.6-1.1 8.1.7 11.9 1.5 3.1 1.5 3.7 0 6.8-3.3 7-.9 15.4 5.5 18.8 12.3 6.6 25.3-6 19.3-18.8-1.5-3.1-1.5-3.7 0-6.8 2-4.3 2-8.9 0-13.2-1.5-3.1-1.5-3.7 0-6.8.9-1.9 1.6-4.8 1.6-6.6 0-1.8-.7-4.7-1.6-6.6-1.5-3.1-1.5-3.7 0-6.8.9-1.9 1.6-4.8 1.6-6.6 0-1.8-.7-4.7-1.6-6.6-1.5-3.1-1.5-3.7 0-6.8 6-12.8-7-25.4-19.3-18.8-6.4 3.4-8.8 11.8-5.5 18.8 1.5 3.1 1.5 3.7 0 6.8-1.8 3.8-2.1 8.3-.7 11.9.9 2.4.9 2.4-3 1.3-2.7-.7-5.1-.7-7.8 0-3.9 1.1-3.9 1.1-3-1.3 1.4-3.6 1.1-8.1-.7-11.9-1.5-3.1-1.5-3.7 0-6.8C497 30.9 490.5 20 480 20c-1.9 0-5.1.8-6.9 1.8zM573.1 21.8c-5.9 3.2-8.6 11-6.1 17.6.9 2.4.8 2.5-1.6 1.6-12.3-4.7-23.5 7.6-17.8 19.6 1.5 3.1 1.5 3.7 0 6.8-.9 1.9-1.6 4.8-1.6 6.6 0 1.8.7 4.7 1.6 6.6 1.5 3.1 1.5 3.7 0 6.8-5.6 11.9 5.5 24.3 17.7 19.7 2.3-.9 2.4-.9 1.4 2.8-2.1 8 2.5 16.3 9.8 17.7 11.3 2.1 19.7-6.8 16.8-17.7-1-3.7-.9-3.7 1.4-2.8 12.2 4.6 23.3-7.8 17.7-19.7-1.5-3.1-1.5-3.7 0-6.8.9-1.9 1.6-4.8 1.6-6.6 0-1.8-.7-4.7-1.6-6.6-1.5-3.1-1.5-3.7 0-6.8 5.7-12-5.5-24.3-17.8-19.6-2.4.9-2.5.8-1.6-1.6 3.6-9.3-3.2-19.4-13-19.4-1.9 0-5.1.8-6.9 1.8zm10.8 25.6c3.9-1.1 3.9-1.1 3 1.3-1.4 3.6-1.1 8.1.7 11.9 1.5 3.1 1.5 3.7 0 6.8-.9 1.9-1.6 4.8-1.6 6.6 0 1.8.7 4.7 1.6 6.6 1.5 3.1 1.5 3.7 0 6.8-1.8 3.8-2.1 8.3-.7 11.9.9 2.4.9 2.4-3 1.3-2.7-.7-5.1-.7-7.8 0-3.9 1.1-3.9 1.1-3-1.3 1.4-3.6 1.1-8.1-.7-11.9-1.5-3.1-1.5-3.7 0-6.8.9-1.9 1.6-4.8 1.6-6.6 0-1.8-.7-4.7-1.6-6.6-1.5-3.1-1.5-3.7 0-6.8 1.8-3.8 2.1-8.3.7-11.9-.9-2.4-.9-2.4 3-1.3 2.7.7 5.1.7 7.8 0zM633.1 21.8c-6.4 3.4-8.8 11.8-5.5 18.8 1.5 3.1 1.5 3.7 0 6.8-.9 1.9-1.6 4.8-1.6 6.6 0 1.8.7 4.7 1.6 6.6 1.5 3.1 1.5 3.7 0 6.8-.9 1.9-1.6 4.8-1.6 6.6 0 1.8.7 4.7 1.6 6.6 1.5 3.1 1.5 3.7 0 6.8-5.6 11.9 5.5 24.3 17.7 19.7 2.3-.9 2.4-.9 1.4 2.8-2.9 10.9 5.5 19.8 16.8 17.7 7.3-1.4 11.9-9.7 9.8-17.6l-.9-3.6 3.8 1c2.6.7 5 .7 7.6 0l3.8-1-.9 3.6c-2.1 7.9 2.5 16.2 9.8 17.6 11.3 2.1 19.7-6.8 16.8-17.7-1-3.7-.9-3.7 1.4-2.8 12.2 4.6 23.3-7.8 17.7-19.7-1.5-3.1-1.5-3.7 0-6.8.9-1.9 1.6-4.8 1.6-6.6 0-1.8-.7-4.7-1.6-6.6-1.5-3.1-1.5-3.7 0-6.8.9-1.9 1.6-4.8 1.6-6.6 0-1.8-.7-4.7-1.6-6.6-1.5-3.1-1.5-3.7 0-6.8 6-12.8-7-25.4-19.3-18.8-6.4 3.4-8.8 11.8-5.5 18.8 1.5 3.1 1.5 3.7 0 6.8-.9 1.9-1.6 4.8-1.6 6.6 0 1.8.7 4.7 1.6 6.6 1.5 3.1 1.5 3.7 0 6.8-.9 1.9-1.6 4.8-1.6 6.6 0 1.8.7 4.7 1.6 6.6 1.5 3.1 1.5 3.7 0 6.8-1.8 3.8-2.1 8.3-.7 11.9.9 2.4.9 2.4-3 1.3-2.7-.7-5.1-.7-7.8 0-3.9 1.1-3.9 1.1-3-1.3 1.4-3.6 1.1-8.1-.7-11.9-1.5-3.1-1.5-3.7 0-6.8.9-1.9 1.6-4.8 1.6-6.6 0-1.8-.7-4.7-1.6-6.6-1.5-3.1-1.5-3.7 0-6.8.9-1.9 1.6-4.8 1.6-6.6 0-1.8-.7-4.7-1.6-6.6-1.5-3.1-1.5-3.7 0-6.8 6-12.8-7-25.4-19.3-18.8-6.4 3.4-8.8 11.8-5.5 18.8 1.5 3.1 1.5 3.7 0 6.8-.9 1.9-1.6 4.8-1.6 6.6 0 1.8.7 4.7 1.6 6.6 1.5 3.1 1.5 3.7 0 6.8-.9 1.9-1.6 4.8-1.6 6.6 0 1.8.7 4.7 1.6 6.6 1.5 3.1 1.5 3.7 0 6.8-1.8 3.8-2.1 8.3-.7 11.9.9 2.4.9 2.4-3 1.3-2.7-.7-5.1-.7-7.8 0-3.9 1.1-3.9 1.1-3-1.3 1.4-3.6 1.1-8.1-.7-11.9-1.5-3.1-1.5-3.7 0-6.8.9-1.9 1.6-4.8 1.6-6.6 0-1.8-.7-4.7-1.6-6.6-1.5-3.1-1.5-3.7 0-6.8.9-1.9 1.6-4.8 1.6-6.6 0-1.8-.7-4.7-1.6-6.6-1.5-3.1-1.5-3.7 0-6.8C657 30.9 650.5 20 640 20c-1.9 0-5.1.8-6.9 1.8z"/></g></svg>